ply
format ascii 1.0
element vertex 138
property float x
property float y
property float z
end_header
3.710616 2.681942 0.000000
3.760077 2.701250 0.000000
3.828126 2.698743 0.000000
3.853885 2.722643 0.000000
3.917907 2.688586 0.000000
3.981091 2.719029 0.000000
4.023215 2.692882 0.000000
4.068810 2.697911 0.000000
4.127660 2.674899 0.000000
4.196651 2.697797 0.000000
4.244948 2.687823 0.000000
4.293245 2.691652 0.000000
4.307610 2.694004 0.000000
4.302650 2.776825 0.000000
4.313310 2.815568 0.000000
4.315751 2.892551 0.000000
4.286134 2.940654 0.000000
4.288326 3.000806 0.000000
4.289472 3.060163 0.000000
4.290504 3.117058 0.000000
4.287925 3.182422 0.000000
4.303089 3.247057 0.000000
4.285140 3.304489 0.000000
4.301766 3.300923 0.000000
4.245257 3.296722 0.000000
4.175533 3.290555 0.000000
4.145003 3.294836 0.000000
4.075064 3.301985 0.000000
4.031221 3.296091 0.000000
3.986745 3.291658 0.000000
3.921161 3.299171 0.000000
3.847608 3.288445 0.000000
3.823007 3.315481 0.000000
3.760955 3.299382 0.000000
3.677850 3.281602 0.000000
3.703154 3.313104 0.000000
3.698612 3.237997 0.000000
3.715909 3.179021 0.000000
3.704942 3.110506 0.000000
3.694022 3.050378 0.000000
3.698107 2.999753 0.000000
3.700945 2.949492 0.000000
3.693861 2.899457 0.000000
3.712417 2.820081 0.000000
3.717190 2.760451 0.000000
3.700181 2.695709 0.000000
5.684183 0.694222 0.000000
5.741302 0.701390 0.000000
5.799917 0.707898 0.000000
5.858597 0.700849 0.000000
5.932270 0.695612 0.000000
5.971402 0.699141 0.000000
6.016937 0.693195 0.000000
6.080152 0.682415 0.000000
6.133488 0.705847 0.000000
6.187549 0.696814 0.000000
6.254320 0.701237 0.000000
6.294464 0.712475 0.000000
6.300565 0.691621 0.000000
6.283665 0.772878 0.000000
6.302426 0.815443 0.000000
6.305774 0.873757 0.000000
6.298780 0.940071 0.000000
6.272269 1.000756 0.000000
6.313124 1.052959 0.000000
6.295520 1.131943 0.000000
6.313834 1.196939 0.000000
6.291278 1.255727 0.000000
6.283364 1.294821 0.000000
6.287510 1.295580 0.000000
6.246294 1.304489 0.000000
6.192265 1.281994 0.000000
6.153601 1.297271 0.000000
6.072199 1.315162 0.000000
6.027202 1.300347 0.000000
5.974364 1.290294 0.000000
5.934756 1.301198 0.000000
5.861884 1.293700 0.000000
5.818952 1.304555 0.000000
5.772005 1.302568 0.000000
5.719348 1.299238 0.000000
5.698342 1.290079 0.000000
5.709357 1.236919 0.000000
5.710106 1.168230 0.000000
5.688231 1.111611 0.000000
5.701177 1.077839 0.000000
5.702228 1.006145 0.000000
5.696333 0.943641 0.000000
5.701662 0.886600 0.000000
5.709249 0.806415 0.000000
5.691745 0.743391 0.000000
5.703053 0.706110 0.000000
7.689802 2.686522 0.000000
7.751029 2.687650 0.000000
7.801089 2.699279 0.000000
7.857832 2.698864 0.000000
7.925517 2.698602 0.000000
7.978184 2.704803 0.000000
8.013127 2.678649 0.000000
8.088447 2.685328 0.000000
8.130515 2.697479 0.000000
8.200993 2.704131 0.000000
8.254627 2.703448 0.000000
8.289460 2.689818 0.000000
8.303875 2.689156 0.000000
8.307863 2.740904 0.000000
8.302784 2.824656 0.000000
8.283128 2.872739 0.000000
8.301361 2.956801 0.000000
8.277902 2.996560 0.000000
8.287962 3.060324 0.000000
8.301525 3.119729 0.000000
8.293108 3.184427 0.000000
8.299182 3.251520 0.000000
8.288927 3.289979 0.000000
8.318534 3.309424 0.000000
8.255006 3.279088 0.000000
8.192382 3.306629 0.000000
8.131128 3.309000 0.000000
8.082285 3.312549 0.000000
8.040248 3.301715 0.000000
7.964633 3.303110 0.000000
7.889071 3.304990 0.000000
7.871329 3.282393 0.000000
7.826816 3.304330 0.000000
7.739833 3.291660 0.000000
7.707996 3.286798 0.000000
7.691416 3.316950 0.000000
7.714220 3.241938 0.000000
7.709162 3.178029 0.000000
7.699372 3.114222 0.000000
7.706272 3.047830 0.000000
7.693494 2.991152 0.000000
7.698141 2.947108 0.000000
7.712977 2.879817 0.000000
7.685227 2.819139 0.000000
7.681696 2.774669 0.000000
7.695763 2.703846 0.000000
