ply
format ascii 1.0
element vertex 138
property float x
property float y
property float z
end_header
3.679964 2.699234 0.000000
3.729092 2.701286 0.000000
3.817937 2.684758 0.000000
3.875688 2.692975 0.000000
3.924200 2.695993 0.000000
3.979162 2.693683 0.000000
4.018021 2.683817 0.000000
4.077961 2.709018 0.000000
4.135765 2.705526 0.000000
4.207640 2.696996 0.000000
4.240680 2.682017 0.000000
4.292470 2.687017 0.000000
4.293276 2.721762 0.000000
4.298245 2.762997 0.000000
4.296838 2.820998 0.000000
4.308996 2.872928 0.000000
4.303372 2.933465 0.000000
4.298323 2.998315 0.000000
4.321451 3.071401 0.000000
4.320241 3.119509 0.000000
4.293464 3.175787 0.000000
4.300399 3.234511 0.000000
4.281583 3.301155 0.000000
4.284958 3.292335 0.000000
4.234903 3.299541 0.000000
4.188954 3.303112 0.000000
4.148341 3.305203 0.000000
4.067901 3.313808 0.000000
4.010123 3.314048 0.000000
3.980920 3.287710 0.000000
3.905538 3.317403 0.000000
3.847727 3.306272 0.000000
3.804624 3.310026 0.000000
3.761285 3.287844 0.000000
3.695781 3.310351 0.000000
3.695658 3.303489 0.000000
3.688039 3.251300 0.000000
3.710206 3.196242 0.000000
3.684109 3.137113 0.000000
3.680501 3.063402 0.000000
3.703925 2.995886 0.000000
3.678366 2.923515 0.000000
3.698239 2.886749 0.000000
3.692509 2.835750 0.000000
3.707228 2.766480 0.000000
3.695414 2.704155 0.000000
5.698195 0.696422 0.000000
5.735543 0.710057 0.000000
5.819695 0.703357 0.000000
5.855674 0.666337 0.000000
5.914900 0.698315 0.000000
5.974740 0.697543 0.000000
6.019266 0.702837 0.000000
6.067797 0.687568 0.000000
6.160229 0.689962 0.000000
6.179594 0.706404 0.000000
6.252839 0.713310 0.000000
6.291782 0.697997 0.000000
6.303064 0.724820 0.000000
6.300394 0.765759 0.000000
6.297868 0.825969 0.000000
6.295340 0.889216 0.000000
6.302198 0.931946 0.000000
6.283015 0.988072 0.000000
6.310984 1.067911 0.000000
6.313176 1.132181 0.000000
6.314329 1.189740 0.000000
6.320256 1.233619 0.000000
6.296334 1.300417 0.000000
6.311691 1.297929 0.000000
6.223775 1.296816 0.000000
6.178118 1.288693 0.000000
6.126341 1.318596 0.000000
6.083367 1.282627 0.000000
6.048366 1.298391 0.000000
5.970807 1.296721 0.000000
5.913437 1.303119 0.000000
5.864899 1.309514 0.000000
5.793655 1.300566 0.000000
5.758626 1.300135 0.000000
5.705083 1.297905 0.000000
5.685539 1.302873 0.000000
5.702159 1.235413 0.000000
5.708413 1.177456 0.000000
5.708483 1.136701 0.000000
5.709768 1.054074 0.000000
5.675900 1.005558 0.000000
5.685402 0.936709 0.000000
5.712858 0.881297 0.000000
5.693230 0.816434 0.000000
5.707019 0.756031 0.000000
5.695562 0.693500 0.000000
7.694765 2.684575 0.000000
7.753924 2.688354 0.000000
7.800639 2.710680 0.000000
7.873660 2.688561 0.000000
7.929260 2.694221 0.000000
7.970151 2.693672 0.000000
8.032598 2.701313 0.000000
8.074600 2.701016 0.000000
8.156850 2.692997 0.000000
8.188679 2.711672 0.000000
8.255357 2.696073 0.000000
8.306942 2.702743 0.000000
8.297048 2.690374 0.000000
8.316171 2.738219 0.000000
8.289533 2.824585 0.000000
8.290141 2.898781 0.000000
8.299971 2.941681 0.000000
8.306821 2.993295 0.000000
8.320327 3.041824 0.000000
8.295249 3.117886 0.000000
8.292285 3.174148 0.000000
8.310527 3.255484 0.000000
8.292574 3.306051 0.000000
8.291761 3.306607 0.000000
8.243855 3.297647 0.000000
8.205562 3.304688 0.000000
8.129765 3.315629 0.000000
8.097534 3.289296 0.000000
8.022262 3.301611 0.000000
7.968705 3.288484 0.000000
7.929168 3.296751 0.000000
7.876052 3.311005 0.000000
7.812048 3.302036 0.000000
7.753836 3.287765 0.000000
7.688962 3.292724 0.000000
7.701009 3.309977 0.000000
7.693193 3.253707 0.000000
7.703244 3.179657 0.000000
7.686505 3.126779 0.000000
7.695804 3.055779 0.000000
7.708893 2.989760 0.000000
7.694231 2.946053 0.000000
7.694720 2.888974 0.000000
7.713049 2.834556 0.000000
7.703956 2.770524 0.000000
7.694027 2.697285 0.000000
